<svg xmlns="http://www.w3.org/2000/svg" viewBox="0 0 1200 800" role="img" aria-labelledby="title desc">
  <title id="title">Smile design planning</title>
  <desc id="desc">A dental smile design board with tooth shade samples and a bright smile preview.</desc>
  <defs>
    <linearGradient id="bg" x1="0" x2="1" y1="0" y2="1">
      <stop stop-color="#e7f3f0"/>
      <stop offset="1" stop-color="#fbf9f1"/>
    </linearGradient>
    <filter id="shadow" x="-20%" y="-20%" width="140%" height="140%">
      <feDropShadow dx="0" dy="18" stdDeviation="18" flood-color="#236358" flood-opacity=".16"/>
    </filter>
  </defs>
  <rect width="1200" height="800" fill="url(#bg)"/>
  <circle cx="1030" cy="120" r="170" fill="#fae8e0"/>
  <circle cx="160" cy="690" r="190" fill="#BDDBD1" opacity=".45"/>
  <rect x="145" y="120" width="910" height="560" rx="42" fill="#fff" filter="url(#shadow)"/>
  <rect x="205" y="180" width="490" height="340" rx="30" fill="#1a2e2a"/>
  <path d="M285 365c32 82 118 126 166 126s134-44 166-126c-34 26-92 44-166 44s-132-18-166-44Z" fill="#fff"/>
  <path d="M325 383c26 31 78 52 126 52s100-21 126-52" fill="none" stroke="#e8643a" stroke-width="12" stroke-linecap="round"/>
  <g fill="#fff" stroke="#2f7b6e" stroke-width="6">
    <rect x="760" y="195" width="82" height="150" rx="24"/>
    <rect x="862" y="195" width="82" height="150" rx="24"/>
    <rect x="760" y="370" width="82" height="150" rx="24"/>
    <rect x="862" y="370" width="82" height="150" rx="24"/>
  </g>
  <g fill="#e8643a">
    <circle cx="801" cy="558" r="15"/>
    <circle cx="903" cy="558" r="15"/>
    <rect x="760" y="600" width="184" height="18" rx="9"/>
  </g>
  <text x="205" y="590" fill="#236358" font-family="Sora, Arial, sans-serif" font-size="42" font-weight="700">Smile Design</text>
  <text x="205" y="635" fill="#4a6b62" font-family="Arial, sans-serif" font-size="24">Digital planning and shade selection</text>
</svg>
