<svg xmlns="http://www.w3.org/2000/svg" viewBox="0 0 1200 800" role="img" aria-labelledby="title desc">
  <title id="title">Dental care team</title>
  <desc id="desc">Friendly dental care team illustration in a clinic setting.</desc>
  <rect width="1200" height="800" fill="#e7f3f0"/>
  <rect x="130" y="120" width="940" height="560" rx="48" fill="#fff"/>
  <circle cx="395" cy="300" r="86" fill="#fae8e0"/>
  <circle cx="600" cy="275" r="92" fill="#fae8e0"/>
  <circle cx="805" cy="300" r="86" fill="#fae8e0"/>
  <path d="M300 600c16-108 82-170 180-170s164 62 180 170" fill="#2f7b6e"/>
  <path d="M485 600c18-128 95-200 215-200s197 72 215 200" fill="#236358"/>
  <path d="M720 600c16-108 82-170 180-170s164 62 180 170" fill="#2f7b6e"/>
  <g fill="#1a2e2a">
    <circle cx="365" cy="300" r="10"/>
    <circle cx="425" cy="300" r="10"/>
    <circle cx="565" cy="275" r="11"/>
    <circle cx="635" cy="275" r="11"/>
    <circle cx="775" cy="300" r="10"/>
    <circle cx="835" cy="300" r="10"/>
  </g>
  <g fill="none" stroke="#e8643a" stroke-width="12" stroke-linecap="round">
    <path d="M360 335c22 24 48 24 70 0"/>
    <path d="M560 315c30 28 50 28 80 0"/>
    <path d="M770 335c22 24 48 24 70 0"/>
  </g>
  <rect x="215" y="170" width="210" height="75" rx="20" fill="#e7f3f0"/>
  <path d="M250 208h140" stroke="#2f7b6e" stroke-width="14" stroke-linecap="round"/>
  <text x="365" y="735" fill="#236358" font-family="Sora, Arial, sans-serif" font-size="44" font-weight="700">Dental Care Team</text>
</svg>
